# xmcd CD database file
#
# Track frame offsets:
#	150
#	18172
#	34475
#	47945
#	63787
#	78937
#	89272
#	103420
#	116505
#	135217
#	159905
#	173157
#	187137
#	200117
#	214445
#
# Disc length: 3023 seconds
#
# Revision: 1
# Processed by: cddbd v1.5.1PL0 Copyright (c) Steve Scherf et al.
# Submitted via: CDex 1.51
#
DISCID=d10bcd0f
DTITLE=JOAQUIM and MANUEL - S.I.N.A.I.
DYEAR=2004
DGENRE=Sertanejo
TTITLE0=Meu Filho
TTITLE1=Coração Caipira
TTITLE2=Casamento Anulado
TTITLE3=Eu Amo Demais a Vida
TTITLE4=Liguei pra Você
TTITLE5=Dias Pares Dias Impares
TTITLE6=Casa Noturna
TTITLE7=Pelos caminhos da Vida
TTITLE8=Tema para um Grande amor
TTITLE9=Minha Música
TTITLE10=Jogo de Cintura
TTITLE11=O Homem Apaixonado
TTITLE12=Resto de Mulher
TTITLE13=Dama do Dia
TTITLE14=Pobre Menina Rica
EXTD=YEAR: 2004
EXTT0=
EXTT1=
EXTT2=
EXTT3=
EXTT4=
EXTT5=
EXTT6=
EXTT7=
EXTT8=
EXTT9=
EXTT10=
EXTT11=
EXTT12=
EXTT13=
EXTT14=
PLAYORDER=
